<svg width="92" height="93" viewBox="0 0 92 93" fill="none" xmlns="http://www.w3.org/2000/svg">
<path d="M46.1002 1.5C40.2873 1.5 34.2739 2.7 28.8619 4.9C23.4499 7.1 18.4388 10.5 14.2294 14.7C10.02 18.9 6.61247 23.9 4.40757 29.3C2.20267 34.7 1 40.7 1 46.5" stroke="#41D9AF" stroke-width="2" stroke-miterlimit="10" stroke-linecap="round"/>
<path d="M1 46.6002C1 51.01 1.60134 55.4198 3.00445 59.6291C4.20713 63.8385 6.21158 67.8474 8.61693 71.6558C13.6281 79.0723 20.6437 84.8852 28.8619 88.2928C32.8708 89.8964 37.2806 91.099 41.6904 91.4999C46.1002 91.9008 50.51 91.7004 54.9198 90.8986C59.3296 90.0968 63.539 88.4933 67.3474 86.4888C71.1559 84.4844 74.7639 81.6781 77.9711 78.6714C81.1782 75.4643 83.784 71.8563 85.7884 68.0478C87.7929 64.2394 89.3964 59.8296 90.1982 55.6202C91 51.2104 91.2004 46.8006 90.7996 42.3908C90.3987 37.981 89.196 33.5712 87.5924 29.5623C84.1849 21.344 78.3719 14.3284 70.9555 9.31731C67.3474 6.91196 63.1381 4.90751 58.9287 3.70483C54.7194 2.50216 50.3096 1.70038 45.8998 1.70038" stroke="#6B38F5" stroke-width="2" stroke-miterlimit="10" stroke-linecap="round"/>
</svg>
