<svg width="80" height="30" viewBox="0 0 80 30" fill="none" xmlns="http://www.w3.org/2000/svg">
<path d="M8.40168 24.5329L39.2391 16.1715L30.9783 0L0 1.47014L8.40168 24.5329Z" fill="#B8B8BD"/>
<path d="M6.05469 7.16675H12.2503C13.5176 7.16675 14.4094 7.4424 15.0665 8.03964C15.6767 8.63689 16.0053 9.46384 16.0053 10.5205C16.0053 11.6231 15.6767 12.496 14.9727 13.0932C14.3156 13.6905 13.2829 14.0121 11.8748 14.0121H9.52801V18.055H6.05469V7.16675ZM9.48107 11.8069H10.7953C11.4524 11.8069 11.9218 11.715 12.2034 11.4853C12.485 11.2556 12.6258 10.9799 12.6258 10.6124C12.6258 10.2908 12.532 9.9692 12.2973 9.73949C12.0626 9.50978 11.6402 9.37195 10.983 9.37195H9.52801V11.8069H9.48107Z" fill="white"/>
<path d="M24.6885 13.5986L27.6925 14.4715C27.5047 15.2984 27.1762 15.9875 26.7538 16.5389C26.3313 17.0902 25.7681 17.5036 25.111 17.7793C24.4539 18.0549 23.6559 18.1928 22.6233 18.1928C21.403 18.1928 20.4173 18.009 19.6663 17.6874C18.9153 17.3658 18.2582 16.7226 17.695 15.8497C17.1317 14.9768 16.8501 13.8742 16.8501 12.5419C16.8501 10.7502 17.3195 9.37193 18.3051 8.40715C19.2908 7.44237 20.652 6.93701 22.4825 6.93701C23.8906 6.93701 24.9702 7.21266 25.7681 7.76396C26.566 8.31527 27.1762 9.18816 27.5517 10.3367L24.5947 11.0258C24.5008 10.7042 24.36 10.4286 24.2661 10.2908C24.0784 10.0151 23.8437 9.83135 23.5621 9.69352C23.2804 9.5557 22.9519 9.46381 22.6233 9.46381C21.8254 9.46381 21.2622 9.7854 20.8397 10.3826C20.5112 10.8421 20.3704 11.5312 20.3704 12.5419C20.3704 13.7364 20.5581 14.5634 20.9336 15.0228C21.3091 15.4822 21.8254 15.7119 22.5294 15.7119C23.1866 15.7119 23.7029 15.5281 24.0314 15.1606C24.313 14.839 24.5477 14.2877 24.6885 13.5986Z" fill="white"/>
<path d="M28.8657 7.16724H32.7615V18.0554H28.8657V7.16724Z" fill="white"/>
<path d="M30.8374 6.47795C32.0557 6.47795 33.0434 5.51122 33.0434 4.31869C33.0434 3.12616 32.0557 2.15942 30.8374 2.15942C29.619 2.15942 28.6313 3.12616 28.6313 4.31869C28.6313 5.51122 29.619 6.47795 30.8374 6.47795Z" fill="white"/>
<path d="M74.3475 19.0659H49.6118V27.1057H74.3475V19.0659Z" fill="#B8B8BD"/>
<path d="M55.714 4.9616C56.2772 5.14537 56.7935 5.5129 57.1221 6.01826C57.4037 6.43174 57.5915 6.84521 57.7323 7.35057C57.8731 7.85593 57.8731 8.26941 57.8731 8.68288C57.8731 9.78549 57.6384 10.7043 57.216 11.4394C56.6058 12.4501 55.6671 12.9555 54.3998 12.9555H50.7856V4.77783H54.3998C54.9161 4.82377 55.3854 4.86972 55.714 4.9616ZM52.5223 6.20203V11.5313H54.1182C54.963 11.5313 55.5263 11.1178 55.8548 10.3368C56.0426 9.92331 56.1364 9.37201 56.1364 8.77477C56.1364 7.94782 55.9956 7.30463 55.714 6.84521C55.4324 6.38579 54.9161 6.15609 54.1182 6.15609H52.5223V6.20203Z" fill="#B8B8BD"/>
<path d="M60.4547 10.4287C60.5016 10.7963 60.5955 11.0719 60.7832 11.2557C61.0649 11.5773 61.5812 11.761 62.2852 11.761C62.7076 11.761 63.0362 11.7151 63.3178 11.6232C63.8341 11.4395 64.0688 11.1179 64.0688 10.6584C64.0688 10.3828 63.928 10.199 63.6933 10.0153C63.4586 9.87743 63.0831 9.73961 62.5199 9.64772L61.6281 9.46396C60.7363 9.28019 60.1261 9.05048 59.7976 8.82077C59.2343 8.45324 58.9527 7.85599 58.9527 7.02904C58.9527 6.29397 59.2343 5.69673 59.7976 5.19137C60.3608 4.68601 61.1587 4.4563 62.2383 4.4563C63.1301 4.4563 63.8811 4.68601 64.5382 5.14543C65.1953 5.60484 65.4769 6.24803 65.5238 7.12092H63.8341C63.7872 6.61556 63.5994 6.29397 63.177 6.06426C62.8954 5.92644 62.5668 5.88049 62.1444 5.88049C61.675 5.88049 61.2995 5.97238 61.0179 6.15615C60.7363 6.33991 60.5955 6.56962 60.5955 6.89121C60.5955 7.16687 60.7363 7.39657 61.0179 7.5344C61.2057 7.62628 61.5812 7.76411 62.1444 7.85599L63.5994 8.17758C64.2566 8.31541 64.7259 8.54512 65.0545 8.77483C65.5708 9.14236 65.8055 9.69367 65.8055 10.4287C65.8055 11.1638 65.5238 11.807 64.9137 12.3123C64.3035 12.8177 63.5056 13.0474 62.426 13.0474C61.3465 13.0474 60.4547 12.8177 59.8445 12.3123C59.2343 11.807 58.9058 11.1638 58.9058 10.2909H60.4547V10.4287Z" fill="#B8B8BD"/>
<path d="M68.1993 10.4287C68.2462 10.7963 68.3401 11.0719 68.5279 11.2557C68.8095 11.5773 69.3258 11.761 70.0298 11.761C70.4523 11.761 70.7808 11.7151 71.0624 11.6232C71.5787 11.4395 71.8134 11.1179 71.8134 10.6584C71.8134 10.3828 71.6726 10.199 71.4379 10.0153C71.2033 9.87743 70.8278 9.73961 70.2645 9.64772L69.3727 9.46396C68.4809 9.28019 67.8707 9.05048 67.5422 8.82077C66.9789 8.45324 66.6973 7.85599 66.6973 7.02904C66.6973 6.29397 66.9789 5.69673 67.5422 5.19137C68.1054 4.68601 68.9034 4.4563 69.9829 4.4563C70.8747 4.4563 71.6257 4.68601 72.2828 5.14543C72.9399 5.60484 73.2215 6.24803 73.2685 7.12092H71.5788C71.5318 6.61556 71.3441 6.29397 70.9216 6.06426C70.64 5.92644 70.3115 5.88049 69.889 5.88049C69.4197 5.88049 69.0442 5.97238 68.7625 6.15615C68.4809 6.33991 68.3401 6.56962 68.3401 6.89121C68.3401 7.16687 68.4809 7.39657 68.7625 7.5344C68.9503 7.62628 69.3258 7.76411 69.889 7.85599L71.3441 8.17758C72.0012 8.31541 72.4706 8.54512 72.7991 8.77483C73.3154 9.14236 73.5501 9.69367 73.5501 10.4287C73.5501 11.1638 73.2685 11.807 72.6583 12.3123C72.0481 12.8177 71.2502 13.0474 70.1706 13.0474C69.0911 13.0474 68.1993 12.8177 67.5891 12.3123C66.9789 11.807 66.6504 11.1638 66.6504 10.2909H68.1993V10.4287Z" fill="#B8B8BD"/>
<path d="M50.6915 14.3338C50.9262 14.1041 51.2078 14.0122 51.5833 14.0122C52.0526 14.0122 52.3812 14.15 52.6159 14.4716C52.7567 14.6554 52.8036 14.7932 52.8036 14.977H52.1935C52.1465 14.8392 52.0996 14.7473 52.0526 14.6554C51.9588 14.5176 51.771 14.4716 51.5833 14.4716C51.3955 14.4716 51.2078 14.5635 51.067 14.7473C50.9262 14.931 50.8792 15.1608 50.8792 15.4823C50.8792 15.8039 50.9262 16.0336 51.067 16.1715C51.2078 16.3093 51.3486 16.4012 51.5363 16.4012C51.7241 16.4012 51.9118 16.3552 52.0057 16.2174C52.0526 16.1255 52.0996 16.0336 52.1465 15.8958H52.7098C52.6628 16.2174 52.522 16.4471 52.3343 16.6309C52.1465 16.8147 51.8649 16.9065 51.5363 16.9065C51.1139 16.9065 50.8323 16.7687 50.5976 16.539C50.3629 16.2634 50.269 15.9418 50.269 15.4823C50.316 14.977 50.4099 14.5635 50.6915 14.3338Z" fill="#B8B8BD"/>
<path d="M55.3382 14.5176H53.8363V15.1148H55.1974V15.5742H53.8363V16.2634H55.3852V16.7687H53.2261V14.0122H55.2913V14.5176H55.3382Z" fill="#B8B8BD"/>
<path d="M57.685 14.1041C57.7788 14.15 57.8727 14.196 57.9666 14.2879C58.0135 14.3797 58.0605 14.4257 58.1074 14.5176C58.1543 14.6095 58.1543 14.7013 58.1543 14.7932C58.1543 14.931 58.1074 15.0689 58.0605 15.1608C58.0135 15.2526 57.8727 15.3905 57.7319 15.4364C57.8727 15.4823 57.9666 15.5742 58.0135 15.6661C58.0605 15.758 58.1074 15.8958 58.1074 16.0796V16.2634C58.1074 16.4012 58.1074 16.4931 58.1074 16.539C58.1074 16.6309 58.1543 16.6768 58.2013 16.6768V16.7687H57.5442C57.5442 16.7228 57.4972 16.6768 57.4972 16.6309C57.4972 16.539 57.4503 16.4931 57.4503 16.4012V16.1255C57.4503 15.9418 57.4033 15.8499 57.3564 15.758C57.3095 15.6661 57.1687 15.6661 57.0279 15.6661H56.4646V16.7687H55.9014V14.0122H57.2625C57.4503 14.0581 57.5911 14.0581 57.685 14.1041ZM56.4646 14.5176V15.2526H57.1217C57.2625 15.2526 57.3564 15.2526 57.4033 15.2067C57.4972 15.1608 57.5911 15.0689 57.5911 14.8851C57.5911 14.7013 57.5442 14.6095 57.4503 14.5635C57.4033 14.5176 57.3095 14.5176 57.1687 14.5176H56.4646Z" fill="#B8B8BD"/>
<path d="M60.7828 14.0122V14.5176H59.938V16.8147H59.3278V14.5176H58.4829V14.0122H60.7828Z" fill="#B8B8BD"/>
<path d="M61.6746 16.8146H61.0645V14.0581H61.6746V16.8146Z" fill="#B8B8BD"/>
<path d="M62.1909 14.0581H64.2092V14.5635H62.8011V15.1607H64.0684V15.6201H62.8011V16.7687H62.2379V14.0581H62.1909Z" fill="#B8B8BD"/>
<path d="M65.1483 16.8146H64.5381V14.0581H65.1483V16.8146Z" fill="#B8B8BD"/>
<path d="M67.7765 14.0122V14.5176H66.9316V16.8147H66.3214V14.5176H65.4766V14.0122H67.7765Z" fill="#B8B8BD"/>
<path d="M70.1703 14.5176H68.6683V15.1148H70.0294V15.5742H68.6683V16.2634H70.2172V16.7687H68.0581V14.0122H70.1233V14.5176H70.1703Z" fill="#B8B8BD"/>
<path d="M72.3762 14.104C72.564 14.15 72.7517 14.2878 72.8456 14.4716C72.9395 14.6094 73.0334 14.7472 73.0334 14.931C73.0803 15.0688 73.0803 15.2526 73.0803 15.3904C73.0803 15.758 72.9864 16.0795 72.8456 16.3093C72.6579 16.6308 72.3293 16.8146 71.9069 16.8146H70.6865V14.0581H71.9069C72.0946 14.0581 72.2824 14.0581 72.3762 14.104ZM71.2967 14.5175V16.3093H71.8599C72.1416 16.3093 72.3293 16.1714 72.4232 15.8958C72.4701 15.758 72.5171 15.5742 72.5171 15.3904C72.5171 15.1148 72.4701 14.8851 72.3762 14.7472C72.2824 14.6094 72.0946 14.5175 71.8599 14.5175H71.2967Z" fill="#B8B8BD"/>
<path d="M51.1611 20.9495H51.7244V24.487H53.7896V24.9464H51.1611V20.9495Z" fill="white"/>
<path d="M54.3999 20.9495H57.3569V21.4548H54.9162V22.6953H57.1692V23.1547H54.9162V24.5329H57.4039V24.9923H54.3999V20.9495Z" fill="white"/>
<path d="M58.4833 20.9495L59.6567 24.3492L60.8301 20.9495H61.4403L59.9383 24.9464H59.3281L57.8262 20.9495H58.4833Z" fill="white"/>
<path d="M62.0034 20.9495H64.9604V21.4548H62.5197V22.6953H64.7727V23.1547H62.5197V24.5329H65.0074V24.9923H62.0034V20.9495Z" fill="white"/>
<path d="M65.7583 20.9495H66.3215V24.487H68.3868V24.9464H65.7583V20.9495Z" fill="white"/>
<path d="M70.4521 22.19V21.8225C70.8276 21.7766 71.0623 21.7306 71.2031 21.6387C71.3439 21.5469 71.4378 21.3631 71.5317 21.0415H71.9072V24.9466H71.3909V22.19H70.4521Z" fill="white"/>
<path d="M22.8579 17.7795L31.4943 30L51.8179 3.5835H48.4854L31.3065 20.9495L24.6415 15.7121L22.8579 17.7795Z" fill="white"/>
<path d="M23.4683 18.2387L31.4475 29.1729L48.3917 7.16675H45.6224L31.3067 21.6384L24.9702 16.4929L23.4683 18.2387Z" fill="#B8B8BD"/>
</svg>
