<svg width="21" height="23" viewBox="0 0 21 23" fill="none" xmlns="http://www.w3.org/2000/svg">
<g clip-path="url(#clip0)">
<path d="M0.454545 0.35791C0.181818 0.626393 0 1.07386 0 1.61083V21.389C0 21.926 0.181818 22.3735 0.454545 22.642L0.545455 22.7315L11.7273 11.6342V11.5447V11.4552L0.454545 0.35791Z" fill="url(#paint0_linear)"/>
<path d="M15.5452 15.3035L11.7271 11.6342V11.5447V11.4552L14.7007 7.31836L19.9998 10.3813C21.2725 11.0972 21.2725 12.2607 19.9998 12.9766L15.5452 15.3035Z" fill="url(#paint1_linear)"/>
<path d="M15.5455 15.3034L11.7273 11.5447L0.45459 22.642C0.909135 23.0894 1.5455 23.0894 2.36368 22.7314L15.5455 15.3034Z" fill="url(#paint2_linear)"/>
<path d="M14.6993 7.31783L2.27277 0.268311C1.5455 -0.17916 0.818226 -0.0896655 0.45459 0.357805L11.8182 11.5446L14.6993 7.31783Z" fill="url(#paint3_linear)"/>
</g>
<defs>
<linearGradient id="paint0_linear" x1="10.7519" y1="1.40428" x2="-4.26551" y2="16.6591" gradientUnits="userSpaceOnUse">
<stop stop-color="#00A0FF"/>
<stop offset="0.00657445" stop-color="#00A1FF"/>
<stop offset="0.2601" stop-color="#00BEFF"/>
<stop offset="0.5122" stop-color="#00D2FF"/>
<stop offset="0.7604" stop-color="#00DFFF"/>
<stop offset="1" stop-color="#00E3FF"/>
</linearGradient>
<linearGradient id="paint1_linear" x1="21.6923" y1="11.5097" x2="-0.304862" y2="11.5097" gradientUnits="userSpaceOnUse">
<stop stop-color="#FFE000"/>
<stop offset="0.4087" stop-color="#FFBD00"/>
<stop offset="0.7754" stop-color="#FFA500"/>
<stop offset="1" stop-color="#FF9C00"/>
</linearGradient>
<linearGradient id="paint2_linear" x1="13.504" y1="13.5633" x2="-6.8608" y2="34.2501" gradientUnits="userSpaceOnUse">
<stop stop-color="#FF3A44"/>
<stop offset="1" stop-color="#C31162"/>
</linearGradient>
<linearGradient id="paint3_linear" x1="-2.43205" y1="-6.23281" x2="6.66177" y2="3.00469" gradientUnits="userSpaceOnUse">
<stop stop-color="#32A071"/>
<stop offset="0.0685" stop-color="#2DA771"/>
<stop offset="0.4762" stop-color="#15CF74"/>
<stop offset="0.8009" stop-color="#06E775"/>
<stop offset="1" stop-color="#00F076"/>
</linearGradient>
<clipPath id="clip0">
<rect width="21" height="23" fill="white"/>
</clipPath>
</defs>
</svg>
