<svg width="32" height="40" viewBox="0 0 32 40" fill="none" xmlns="http://www.w3.org/2000/svg">
<path fill-rule="evenodd" clip-rule="evenodd" d="M20.2729 24.1011C18.9328 25.2455 17.3051 25.9169 15.5494 25.9169C12.1055 25.9169 9.15248 23.3353 7.90127 19.6611C7.90127 19.6611 7.90122 19.6611 7.90122 19.661C7.56756 18.3477 7.3875 16.9551 7.3875 15.5123C7.3875 14.6169 7.45723 13.7409 7.58939 12.891C8.59051 8.6498 11.7752 5.54922 15.5494 5.54922C17.872 5.54922 19.9709 6.72368 21.4756 8.61503C22.9362 10.4511 23.837 12.9626 23.837 15.733C23.837 19.2001 22.4267 22.262 20.2729 24.1011ZM31.45 14.7177C31.4209 14.0822 31.355 13.4586 31.2585 12.8478C30.427 8.23567 27.552 4.32524 23.5949 2.06943C23.5817 2.06364 23.5688 2.05713 23.5556 2.0514V2.04763C21.2551 0.744849 18.5915 0 15.7523 0C15.73 0 15.7078 0.000771564 15.6856 0.000819787C15.6703 0.000819787 15.6552 0.000144668 15.6399 0.000144668C14.3892 0.000144668 13.1728 0.146115 12.0068 0.421804C11.9953 0.424601 11.9837 0.427302 11.9723 0.430195C11.9214 0.442299 11.8709 0.455271 11.8203 0.467857C10.4568 0.820124 9.16618 1.35168 7.97343 2.03408C7.94023 2.05308 7.90655 2.07146 7.8735 2.0907C7.86818 2.09374 7.86295 2.09692 7.85763 2.09996C3.15963 4.80202 0 9.84111 0 15.612C0 16.4768 0 17.8976 0 17.8976V40H2.10508C5.30241 40 7.8944 37.4171 7.8944 34.2308V29.143C9.84434 30.2574 12.0572 30.9705 14.4187 31.1667C14.4294 31.1677 14.4402 31.1684 14.4509 31.1693C14.5432 31.1768 14.6356 31.1841 14.7284 31.1899C14.8385 31.1971 14.949 31.2033 15.0597 31.2082C15.0902 31.2095 15.1207 31.2105 15.1512 31.2116C15.2345 31.2148 15.3179 31.2178 15.4016 31.2197C15.4895 31.2216 15.5777 31.2225 15.6659 31.223C15.6971 31.2232 15.7281 31.224 15.7592 31.224C15.8736 31.2239 15.9875 31.2222 16.1013 31.2197C16.2099 31.217 16.3183 31.2132 16.4266 31.2088C16.4315 31.2087 16.4364 31.2084 16.4413 31.2084C19.8478 31.063 22.9741 29.8463 25.4848 27.8885C27.8827 26.0186 29.7187 23.4732 30.7023 20.542C31.1108 19.2474 31.3671 17.8642 31.4434 16.4227C31.4473 16.2813 31.45 16.1397 31.45 15.9974C31.45 15.7471 31.4435 15.4984 31.4315 15.251C31.4434 15.1268 31.45 15.0011 31.45 14.8739V14.7177Z" fill="#B8B8BD"/>
<path fill-rule="evenodd" clip-rule="evenodd" d="M30.704 20.5443C31.1125 19.2497 31.3688 17.8665 31.4451 16.425C31.449 16.2836 31.4517 16.142 31.4517 15.9996C31.4517 15.7494 31.4452 15.5006 31.4332 15.2533C31.4451 15.1291 31.4517 15.0034 31.4517 14.8762V14.72C31.4226 14.0845 31.3567 13.4609 31.2602 12.8501C30.4287 8.23796 27.5537 4.32752 23.5966 2.07171C23.5834 2.06593 23.5705 2.05942 23.5573 2.05368C23.5573 2.05368 23.1933 1.93148 23.0082 1.8332C21.8793 1.41612 20.6792 1.19141 19.435 1.19141C13.5406 1.19141 8.63661 6.23324 7.60156 12.8898C8.60269 8.64852 11.7873 5.54795 15.5616 5.54795C17.8841 5.54795 19.9831 6.72241 21.4878 8.61376C22.9484 10.4498 23.8491 12.9614 23.8491 15.7318C23.8491 19.1988 22.4388 22.2607 20.285 24.0998C18.945 25.2442 17.3172 25.9156 15.5616 25.9156C12.1176 25.9156 9.16456 23.3339 7.9134 19.6598C9.40841 25.545 14.0007 29.8306 19.435 29.8306C21.6413 29.8306 23.7087 29.1239 25.4865 27.8908C27.8844 26.0209 29.7204 23.4755 30.704 20.5443Z" fill="url(#paint0_linear)"/>
<defs>
<linearGradient id="paint0_linear" x1="7.85817" y1="1.19141" x2="7.85817" y2="29.2143" gradientUnits="userSpaceOnUse">
<stop stop-color="#81818A"/>
<stop offset="0.547327" stop-color="#B8B8BD"/>
</linearGradient>
</defs>
</svg>
