<svg width="60" height="60" viewBox="0 0 60 60" fill="none" xmlns="http://www.w3.org/2000/svg">
<mask id="mask0" mask-type="alpha" maskUnits="userSpaceOnUse" x="0" y="0" width="60" height="60">
<path fill-rule="evenodd" clip-rule="evenodd" d="M0 3.05176e-05H60V60H0V3.05176e-05Z" fill="white"/>
</mask>
<g mask="url(#mask0)">
<path fill-rule="evenodd" clip-rule="evenodd" d="M60 30C60 46.5685 46.5686 60 30 60C13.4315 60 0 46.5685 0 30C0 13.4315 13.4315 3.05176e-05 30 3.05176e-05C46.5686 3.05176e-05 60 13.4315 60 30Z" fill="#1DCF9F"/>
</g>
<path fill-rule="evenodd" clip-rule="evenodd" d="M47.2197 28.5962C47.2197 22.1783 41.9409 16.9933 35.4884 17.1462C29.2929 17.2929 24.2929 22.4371 24.3129 28.6343C24.3287 33.4614 27.3314 37.583 31.569 39.2528C32.6234 39.6683 33.5517 40.3507 34.2266 41.2612L35.197 42.5705C35.4803 42.9527 36.0523 42.9527 36.3356 42.5705L37.3061 41.2611C37.9806 40.3512 38.9078 39.6686 39.9618 39.2534C44.2114 37.5798 47.2197 33.4404 47.2197 28.5962Z" fill="white" fill-opacity="0.6"/>
<path fill-rule="evenodd" clip-rule="evenodd" d="M39.5049 28.3623C39.5049 20.8747 33.3463 14.8255 25.8183 15.0039C18.5902 15.175 12.7569 21.1766 12.7803 28.4067C12.7986 34.0383 16.3018 38.8467 21.2457 40.7949C22.4759 41.2796 23.5588 42.0758 24.3462 43.1381L25.4784 44.6656C25.8089 45.1114 26.4762 45.1114 26.8066 44.6656L27.9389 43.138C28.7259 42.0764 29.8077 41.2799 31.0372 40.7957C35.9953 38.843 39.5049 34.0138 39.5049 28.3623Z" fill="white"/>
<path fill-rule="evenodd" clip-rule="evenodd" d="M27.718 28.6999C27.718 29.57 27.0127 30.2754 26.1425 30.2754C25.2724 30.2754 24.567 29.57 24.567 28.6999C24.567 27.8298 25.2724 27.1244 26.1425 27.1244C27.0127 27.1244 27.718 27.8298 27.718 28.6999Z" fill="#1DCF9F"/>
<path fill-rule="evenodd" clip-rule="evenodd" d="M33.4778 28.6999C33.4778 29.57 32.7725 30.2754 31.9023 30.2754C31.0322 30.2754 30.3268 29.57 30.3268 28.6999C30.3268 27.8298 31.0322 27.1244 31.9023 27.1244C32.7725 27.1244 33.4778 27.8298 33.4778 28.6999Z" fill="#1DCF9F"/>
<path fill-rule="evenodd" clip-rule="evenodd" d="M18.8074 28.6999C18.8074 29.57 19.5127 30.2754 20.3829 30.2754C21.2531 30.2754 21.9584 29.57 21.9584 28.6999C21.9584 27.8298 21.2531 27.1244 20.3829 27.1244C19.5127 27.1244 18.8074 27.8298 18.8074 28.6999Z" fill="#1DCF9F"/>
<path fill-rule="evenodd" clip-rule="evenodd" d="M51.1891 12.9448C48.885 12.9448 47.0106 11.0703 47.0106 8.76619C47.0106 6.4621 48.885 4.58762 51.1891 4.58762C53.4932 4.58762 55.3677 6.4621 55.3677 8.76619C55.3677 11.0703 53.4932 12.9448 51.1891 12.9448Z" fill="#6B38F5"/>
<path d="M51.1891 12.9448C48.885 12.9448 47.0106 11.0703 47.0106 8.76619C47.0106 6.4621 48.885 4.58762 51.1891 4.58762C53.4932 4.58762 55.3677 6.4621 55.3677 8.76619C55.3677 11.0703 53.4932 12.9448 51.1891 12.9448" stroke="white" stroke-width="2"/>
</svg>
